FiraMath-Fraktur.glyphspackage
{
glyphname = a;
layers = (
{
layerId = "F8404493-F0CE-490E-B124-BB28D79C5E92";
shapes = (
{
closed = 1;
nodes = (
(496,37,l),
(364,117,l),
(313,53,l),
(440,-24,l)
);
},
{
ref = o;
}
);
width = 557;
}
);
metricLeft = o;
unicode = 97;
}
{
glyphname = b;
layers = (
{
layerId = "F8404493-F0CE-490E-B124-BB28D79C5E92";
shapes = (
{
closed = 1;
nodes = (
(105,407,l),
(191,461,l),
(305,417,l),
(305,100,l),
(251,66,l),
(105,122,l),
(105,31,l),
(247,-24,l),
(397,70,l),
(397,473,l),
(195,551,l),
(105,495,l)
);
},
{
closed = 1;
nodes = (
(32,739,l),
(32,0,l),
(124,0,l),
(124,748,l)
);
}
);
width = 467;
}
);
metricLeft = n;
metricRight = "=o+5";
unicode = 98;
}
{
glyphname = c;
layers = (
{
background = {
shapes = (
{
pos = (1,0);
ref = o;
}
);
};
layerId = "F8404493-F0CE-490E-B124-BB28D79C5E92";
shapes = (
{
closed = 1;
nodes = (
(374,487,l),
(209,551,l),
(65,460,l),
(65,53,l),
(265,-24,l),
(381,48,l),
(342,112,l),
(269,66,l),
(157,109,l),
(157,431,l),
(205,461,l),
(342,408,l)
);
}
);
width = 421;
}
);
metricLeft = o;
unicode = 99;
}
{
glyphname = d;
layers = (
{
layerId = "F8404493-F0CE-490E-B124-BB28D79C5E92";
shapes = (
{
closed = 1;
nodes = (
(330,739,l),
(330,0,l),
(422,0,l),
(422,748,l)
);
},
{
closed = 1;
nodes = (
(350,501,l),
(220,551,l),
(70,457,l),
(70,54,l),
(272,-24,l),
(350,25,l),
(350,113,l),
(276,66,l),
(162,110,l),
(162,427,l),
(216,461,l),
(350,409,l)
);
}
);
width = 454;
}
);
metricLeft = "=o+5";
metricRight = "=|n";
unicode = 100;
}
{
glyphname = e;
layers = (
{
layerId = "F8404493-F0CE-490E-B124-BB28D79C5E92";
shapes = (
{
closed = 1;
nodes = (
(133,206,l),
(417,377,l),
(417,476,l),
(221,551,l),
(65,457,l),
(65,54,l),
(267,-24,l),
(442,68,l),
(408,134,l),
(271,66,l),
(157,110,l),
(157,425,l),
(217,461,l),
(325,420,l),
(325,406,l),
(133,290,l)
);
}
);
width = 502;
}
);
metricLeft = o;
unicode = 101;
}
{
glyphname = f;
layers = (
{
layerId = "F8404493-F0CE-490E-B124-BB28D79C5E92";
shapes = (
{
closed = 1;
nodes = (
(455,686,l),
(282,753,l),
(137,662,l),
(137,0,l),
(229,0,l),
(229,632,l),
(278,663,l),
(422,607,l)
);
},
{
closed = 1;
nodes = (
(29,441,l),
(368,441,l),
(368,517,l),
(29,517,l)
);
}
);
width = 414;
}
);
unicode = 102;
}
{
glyphname = g;
layers = (
{
layerId = "F8404493-F0CE-490E-B124-BB28D79C5E92";
shapes = (
{
closed = 1;
nodes = (
(418,90,l),
(418,473,l),
(216,551,l),
(66,457,l),
(66,74,l),
(268,-4,l)
);
},
{
closed = 1;
nodes = (
(418,-105,l),
(418,130,l),
(326,72,l),
(326,-75,l),
(244,-127,l),
(94,-69,l),
(45,-142,l),
(240,-217,l)
);
},
{
closed = 1;
nodes = (
(158,130,l),
(158,427,l),
(212,461,l),
(326,417,l),
(326,120,l),
(272,86,l)
);
}
);
width = 437;
}
);
unicode = 103;
}
{
glyphname = h;
layers = (
{
layerId = "F8404493-F0CE-490E-B124-BB28D79C5E92";
shapes = (
{
closed = 1;
nodes = (
(32,739,l),
(32,0,l),
(124,0,l),
(124,748,l)
);
},
{
closed = 1;
nodes = (
(100,392,l),
(234,459,l),
(284,430,l),
(284,0,l),
(376,0,l),
(376,474,l),
(246,551,l),
(68,462,l)
);
}
);
width = 408;
}
);
metricLeft = n;
metricRight = n;
unicode = 104;
}
{
glyphname = i;
layers = (
{
layerId = "F8404493-F0CE-490E-B124-BB28D79C5E92";
shapes = (
{
closed = 1;
nodes = (
(184,0,l),
(184,474,l),
(75,539,l),
(0,483,l),
(92,430,l),
(92,0,l)
);
},
{
closed = 1;
nodes = (
(215,679,l),
(98,749,l),
(23,693,l),
(140,623,l)
);
}
);
width = 128;
}
);
unicode = 105;
}
{
glyphname = j;
layers = (
{
layerId = "F8404493-F0CE-490E-B124-BB28D79C5E92";
shapes = (
{
closed = 1;
nodes = (
(195,-217,l),
(345,-123,l),
(345,474,l),
(236,539,l),
(161,483,l),
(253,430,l),
(253,-93,l),
(199,-127,l),
(49,-69,l),
(0,-142,l)
);
},
{
closed = 1;
nodes = (
(376,679,l),
(259,749,l),
(184,693,l),
(301,623,l)
);
}
);
width = 289;
}
);
unicode = 106;
}
{
glyphname = k;
layers = (
{
layerId = "F8404493-F0CE-490E-B124-BB28D79C5E92";
shapes = (
{
closed = 1;
nodes = (
(286,682,l),
(177,747,l),
(102,691,l),
(194,638,l),
(194,0,l),
(286,0,l)
);
},
{
closed = 1;
nodes = (
(356,551,l),
(266,495,l),
(266,407,l),
(352,461,l),
(440,427,l),
(440,377,l),
(308,285,l),
(463,-25,l),
(576,23,l),
(550,87,l),
(515,72,l),
(412,260,l),
(532,347,l),
(532,483,l)
);
}
);
width = 596;
}
);
unicode = 107;
}
{
glyphname = l;
layers = (
{
layerId = "F8404493-F0CE-490E-B124-BB28D79C5E92";
shapes = (
{
closed = 1;
nodes = (
(211,682,l),
(102,747,l),
(27,691,l),
(119,638,l),
(119,50,l),
(228,-15,l),
(303,41,l),
(211,94,l)
);
}
);
width = 348;
}
);
metricLeft = "=n-5";
unicode = 108;
}
{
glyphname = m;
layers = (
{
layerId = "F8404493-F0CE-490E-B124-BB28D79C5E92";
shapes = (
{
closed = 1;
nodes = (
(32,486,l),
(97,418,l),
(97,0,l),
(189,0,l),
(189,450,l),
(102,541,l)
);
},
{
closed = 1;
nodes = (
(165,392,l),
(299,459,l),
(349,430,l),
(349,0,l),
(441,0,l),
(441,474,l),
(311,551,l),
(133,462,l)
);
},
{
closed = 1;
nodes = (
(417,392,l),
(551,459,l),
(601,430,l),
(601,0,l),
(693,0,l),
(693,474,l),
(563,551,l),
(385,462,l)
);
}
);
width = 725;
}
);
metricLeft = n;
metricRight = n;
unicode = 109;
}
{
glyphname = n;
layers = (
{
layerId = "F8404493-F0CE-490E-B124-BB28D79C5E92";
shapes = (
{
closed = 1;
nodes = (
(32,486,l),
(97,418,l),
(97,0,l),
(189,0,l),
(189,450,l),
(102,541,l)
);
},
{
closed = 1;
nodes = (
(165,392,l),
(299,459,l),
(349,430,l),
(349,0,l),
(441,0,l),
(441,474,l),
(311,551,l),
(133,462,l)
);
}
);
width = 473;
}
);
unicode = 110;
}
{
glyphname = o;
layers = (
{
layerId = "F8404493-F0CE-490E-B124-BB28D79C5E92";
shapes = (
{
closed = 1;
nodes = (
(209,551,l),
(65,461,l),
(65,53,l),
(265,-24,l),
(409,66,l),
(409,474,l)
);
},
{
closed = 1;
nodes = (
(205,461,l),
(317,418,l),
(317,96,l),
(269,66,l),
(157,109,l),
(157,431,l)
);
}
);
width = 474;
}
);
metricRight = "=|";
unicode = 111;
}
{
glyphname = p;
layers = (
{
layerId = "F8404493-F0CE-490E-B124-BB28D79C5E92";
shapes = (
{
closed = 1;
nodes = (
(195,-24,l),
(397,54,l),
(397,457,l),
(247,551,l),
(105,496,l),
(105,405,l),
(251,461,l),
(305,427,l),
(305,110,l),
(191,66,l),
(105,120,l),
(105,32,l)
);
},
{
closed = 1;
nodes = (
(124,527,l),
(32,527,l),
(32,-212,l),
(124,-221,l)
);
}
);
width = 467;
}
);
metricLeft = n;
metricRight = "=o+5";
unicode = 112;
}
{
glyphname = q;
layers = (
{
layerId = "F8404493-F0CE-490E-B124-BB28D79C5E92";
shapes = (
{
closed = 1;
nodes = (
(422,527,l),
(330,527,l),
(330,-212,l),
(422,-221,l)
);
},
{
closed = 1;
nodes = (
(216,66,l),
(162,100,l),
(162,417,l),
(276,461,l),
(350,414,l),
(350,502,l),
(272,551,l),
(70,473,l),
(70,70,l),
(220,-24,l),
(350,26,l),
(350,118,l)
);
}
);
width = 454;
}
);
metricLeft = "=o+5";
metricRight = "=|n";
unicode = 113;
}
{
glyphname = r;
layers = (
{
layerId = "F8404493-F0CE-490E-B124-BB28D79C5E92";
shapes = (
{
closed = 1;
nodes = (
(105,405,l),
(195,461,l),
(315,415,l),
(348,494,l),
(199,551,l),
(105,493,l)
);
},
{
closed = 1;
nodes = (
(32,527,l),
(32,0,l),
(124,0,l),
(124,527,l)
);
}
);
width = 368;
}
);
metricLeft = n;
unicode = 114;
}
{
glyphname = s;
layers = (
{
layerId = "F8404493-F0CE-490E-B124-BB28D79C5E92";
shapes = (
{
closed = 1;
nodes = (
(153,357,l),
(153,427,l),
(207,461,l),
(380,394,l),
(413,473,l),
(211,551,l),
(61,457,l),
(61,301,l),
(326,198,l),
(326,102,l),
(262,66,l),
(80,136,l),
(49,56,l),
(258,-24,l),
(418,69,l),
(418,255,l)
);
}
);
width = 475;
}
);
unicode = 115;
}
{
glyphname = t;
layers = (
{
layerId = "F8404493-F0CE-490E-B124-BB28D79C5E92";
shapes = (
{
closed = 1;
nodes = (
(117,610,l),
(117,42,l),
(288,-24,l),
(384,32,l),
(347,97,l),
(292,66,l),
(209,98,l),
(209,652,l)
);
},
{
closed = 1;
nodes = (
(25,441,l),
(332,441,l),
(332,517,l),
(25,517,l)
);
}
);
width = 390;
}
);
unicode = 116;
}
{
glyphname = u;
layers = (
{
layerId = "F8404493-F0CE-490E-B124-BB28D79C5E92";
shapes = (
{
closed = 1;
nodes = (
(468,37,l),
(364,118,l),
(298,65,l),
(412,-24,l)
);
},
{
closed = 1;
nodes = (
(292,527,l),
(292,100,l),
(238,66,l),
(124,110,l),
(124,527,l),
(32,527,l),
(32,54,l),
(234,-24,l),
(384,70,l),
(384,527,l)
);
}
);
width = 500;
}
);
metricLeft = "=|n";
metricRight = "=|n";
unicode = 117;
}
{
glyphname = v;
layers = (
{
layerId = "F8404493-F0CE-490E-B124-BB28D79C5E92";
shapes = (
{
closed = 1;
nodes = (
(288,527,l),
(288,100,l),
(234,66,l),
(120,110,l),
(120,527,l),
(28,527,l),
(28,54,l),
(230,-24,l),
(380,70,l),
(380,527,l)
);
}
);
width = 408;
}
);
unicode = 118;
}
{
glyphname = w;
layers = (
{
layerId = "F8404493-F0CE-490E-B124-BB28D79C5E92";
shapes = (
{
closed = 1;
nodes = (
(310,527,l),
(310,100,l),
(256,66,l),
(142,110,l),
(142,527,l),
(50,527,l),
(50,54,l),
(252,-24,l),
(402,70,l),
(402,527,l)
);
},
{
closed = 1;
nodes = (
(570,527,l),
(570,100,l),
(516,66,l),
(358,127,l),
(323,49,l),
(512,-24,l),
(662,70,l),
(662,527,l)
);
}
);
width = 712;
}
);
unicode = 119;
}
{
glyphname = x;
layers = (
{
layerId = "F8404493-F0CE-490E-B124-BB28D79C5E92";
shapes = (
{
closed = 1;
nodes = (
(180,-24,l),
(298,52,l),
(259,115,l),
(183,66,l),
(71,109,l),
(40,32,l)
);
},
{
closed = 1;
nodes = (
(358,462,l),
(443,428,l),
(480,506,l),
(360,551,l),
(218,463,l),
(258,400,l)
);
},
{
closed = 1;
nodes = (
(50,475,l),
(214,409,l),
(214,67,l),
(440,-24,l),
(475,52,l),
(306,117,l),
(306,466,l),
(85,551,l)
);
}
);
width = 520;
}
);
unicode = 120;
}
{
glyphname = y;
layers = (
{
layerId = "F8404493-F0CE-490E-B124-BB28D79C5E92";
shapes = (
{
closed = 1;
nodes = (
(223,-217,l),
(401,-105,l),
(401,130,l),
(309,72,l),
(309,-75,l),
(227,-127,l),
(77,-69,l),
(28,-142,l)
);
},
{
closed = 1;
nodes = (
(309,527,l),
(309,120,l),
(255,86,l),
(141,130,l),
(141,527,l),
(49,527,l),
(49,74,l),
(251,-4,l),
(401,90,l),
(401,527,l)
);
}
);
width = 429;
}
);
metricLeft = v;
metricRight = v;
unicode = 121;
}
{
glyphname = z;
layers = (
{
layerId = "F8404493-F0CE-490E-B124-BB28D79C5E92";
shapes = (
{
closed = 1;
nodes = (
(45,527,l),
(45,451,l),
(275,451,l),
(103,251,l),
(285,179,l),
(285,-87,l),
(221,-127,l),
(78,-72,l),
(29,-145,l),
(217,-217,l),
(377,-117,l),
(377,236,l),
(238,289,l),
(377,451,l),
(377,527,l)
);
}
);
width = 410;
}
);
unicode = 122;
}
